<?xml version="1.0" encoding="iso-8859-1"?>
<!-- Generator: Adobe Illustrator 18.0.0, SVG Export Plug-In . SVG Version: 6.00 Build 0)  -->
<!DOCTYPE svg PUBLIC "-//W3C//DTD SVG 1.1//EN" "http://www.w3.org/Graphics/SVG/1.1/DTD/svg11.dtd">
<svg version="1.1" id="Capa_1" xmlns="http://www.w3.org/2000/svg" xmlns:xlink="http://www.w3.org/1999/xlink" x="0px" y="0px"
	 viewBox="0 0 353.929 353.929" style="enable-background:new 0 0 353.929 353.929;" xml:space="preserve">
<g>
	<path d="M153.538,165.69c0.877-0.896,1.699-1.809,2.462-2.73c8.468-10.225,12.584-22.948,12.584-38.897
		c0-15.06-4.057-28.347-12.077-39.521c-13.206-17.963-34.268-26.934-64.436-27.425H8.5c-4.687,0-8.5,3.813-8.5,8.5v218
		c0,4.687,3.813,8.5,8.5,8.5h76.738c11.433,0,22.259-1.037,32.184-3.082c10.9-2.261,20.53-6.56,28.594-12.753
		c7.21-5.397,13.266-12.076,17.973-19.811c7.489-11.856,11.287-25.392,11.287-40.23c0-14.403-3.412-27.008-10.133-37.455
		C161.909,173.713,158.094,169.403,153.538,165.69z M85.238,266.117H26v-85.702l101.801-0.001
		c6.932,2.908,11.986,6.962,15.445,12.391c4.001,6.218,6.029,14.103,6.029,23.435c0,9.859-2.483,18.784-7.41,26.573
		c-3.031,4.988-6.909,9.271-11.557,12.75c-5.026,3.86-11.135,6.555-18.151,8.01C103.968,265.262,94.911,266.117,85.238,266.117z
		 M135.967,146.386c-1.961,2.372-4.99,4.735-9.012,7.029L26,153.415V83.117l65.929,0c21.298,0.359,35.549,5.833,43.542,16.706
		c4.72,6.577,7.113,14.732,7.113,24.24C142.584,133.708,140.42,141.008,135.967,146.386z"/>
	<path d="M225.132,103.32h88.25c4.686,0,8.5-3.813,8.5-8.5v-6.5c0-4.687-3.814-8.5-8.5-8.5h-88.25c-4.687,0-8.5,3.813-8.5,8.5v6.5
		C216.632,99.507,220.445,103.32,225.132,103.32z"/>
	<path d="M353.929,203.312c0-0.401-0.029-0.805-0.084-1.202l-0.657-9.063c-3.24-44.704-40.91-79.722-85.759-79.722
		c-44.835,0-82.497,35.018-85.74,79.712c-0.016,0.204-0.023,0.41-0.023,0.611l-0.025,17.176c0,47.413,38.574,85.987,85.988,85.987
		c34.633,0,65.729-20.612,79.223-52.512c0.886-2.092,0.902-4.403,0.049-6.505c-0.854-2.105-2.475-3.751-4.566-4.635l-8.288-3.505
		c-1.055-0.447-2.168-0.673-3.309-0.673c-3.424,0-6.498,2.037-7.831,5.189c-9.415,22.259-31.113,36.641-55.277,36.641
		c-32.749,0-59.452-26.375-59.98-58.999h137.781C350.115,211.812,353.929,208,353.929,203.312z M267.429,139.326
		c27.713,0,52.228,19.749,58.449,46.487h-116.88C215.222,159.074,239.73,139.326,267.429,139.326z"/>
</g>
<g>
</g>
<g>
</g>
<g>
</g>
<g>
</g>
<g>
</g>
<g>
</g>
<g>
</g>
<g>
</g>
<g>
</g>
<g>
</g>
<g>
</g>
<g>
</g>
<g>
</g>
<g>
</g>
<g>
</g>
</svg>
